<svg xmlns="http://www.w3.org/2000/svg" viewBox="110 70 450 410" shape-rendering="crispEdges">
  <path fill="#12B76A" d="M 220 80 L 450 80 L 450 90 L 460 90 L 460 100 L 470 100 L 470 110 L 480 110 L 480 120 L 490 120 L 490 130 L 500 130 L 500 140 L 510 140 L 510 150 L 520 150 L 520 160 L 530 160 L 530 170 L 540 170 L 540 180 L 550 180 L 550 380 L 540 380 L 540 390 L 530 390 L 530 400 L 520 400 L 520 410 L 510 410 L 510 420 L 500 420 L 500 430 L 490 430 L 490 440 L 480 440 L 480 450 L 470 450 L 470 460 L 460 460 L 460 470 L 210 470 L 210 460 L 200 460 L 200 450 L 190 450 L 190 440 L 180 440 L 180 430 L 170 430 L 170 420 L 160 420 L 160 410 L 150 410 L 150 400 L 140 400 L 140 390 L 130 390 L 130 380 L 120 380 L 120 180 L 130 180 L 130 170 L 140 170 L 140 160 L 150 160 L 150 150 L 160 150 L 160 140 L 170 140 L 170 130 L 180 130 L 180 120 L 190 120 L 190 110 L 200 110 L 200 100 L 210 100 L 210 90 L 220 90 Z M 450 430 L 460 430 L 460 420 L 470 420 L 470 410 L 480 410 L 480 400 L 490 400 L 490 390 L 500 390 L 500 380 L 510 380 L 510 370 L 520 370 L 520 220 L 510 220 L 510 230 L 500 230 L 500 240 L 490 240 L 490 250 L 480 250 L 480 260 L 470 260 L 470 270 L 460 270 L 460 280 L 450 280 L 450 290 L 220 290 L 220 280 L 210 280 L 210 270 L 200 270 L 200 260 L 190 260 L 190 250 L 180 250 L 180 240 L 170 240 L 170 230 L 160 230 L 160 220 L 150 220 L 150 370 L 160 370 L 160 380 L 170 380 L 170 390 L 180 390 L 180 400 L 190 400 L 190 410 L 200 410 L 200 420 L 210 420 L 210 430 L 220 430 L 220 440 L 450 440 Z M 250 320 L 280 320 L 280 410 L 250 410 Z M 390 320 L 420 320 L 420 410 L 390 410 Z"></path>
</svg>
