<?xml version="1.0"?>
<svg version="1.1" width="2344" height="570" xmlns="http://www.w3.org/2000/svg" shape-rendering="crispEdges" viewBox="0 0 2344 570">
  <path d="M 220 90 L 450 90 L 450 100 L 460 100 L 460 110 L 470 110 L 470 120 L 480 120 L 480 130 L 490 130 L 490 140 L 500 140 L 500 150 L 510 150 L 510 160 L 520 160 L 520 170 L 530 170 L 530 180 L 540 180 L 540 190 L 550 190 L 550 390 L 540 390 L 540 400 L 530 400 L 530 410 L 520 410 L 520 420 L 510 420 L 510 430 L 500 430 L 500 440 L 490 440 L 490 450 L 480 450 L 480 460 L 470 460 L 470 470 L 460 470 L 460 480 L 210 480 L 210 470 L 200 470 L 200 460 L 190 460 L 190 450 L 180 450 L 180 440 L 170 440 L 170 430 L 160 430 L 160 420 L 150 420 L 150 410 L 140 410 L 140 400 L 130 400 L 130 390 L 120 390 L 120 190 L 130 190 L 130 180 L 140 180 L 140 170 L 150 170 L 150 160 L 160 160 L 160 150 L 170 150 L 170 140 L 180 140 L 180 130 L 190 130 L 190 120 L 200 120 L 200 110 L 210 110 L 210 100 L 220 100 L 220 90 Z M 450 440 L 460 440 L 460 430 L 470 430 L 470 420 L 480 420 L 480 410 L 490 410 L 490 400 L 500 400 L 500 390 L 510 390 L 510 380 L 520 380 L 520 230 L 510 230 L 510 240 L 500 240 L 500 250 L 490 250 L 490 260 L 480 260 L 480 270 L 470 270 L 470 280 L 460 280 L 460 290 L 450 290 L 450 300 L 220 300 L 220 290 L 210 290 L 210 280 L 200 280 L 200 270 L 190 270 L 190 260 L 180 260 L 180 250 L 170 250 L 170 240 L 160 240 L 160 230 L 150 230 L 150 380 L 160 380 L 160 390 L 170 390 L 170 400 L 180 400 L 180 410 L 190 410 L 190 420 L 200 420 L 200 430 L 210 430 L 210 440 L 220 440 L 220 450 L 450 450 L 450 440 Z M 250 330 L 280 330 L 280 420 L 250 420 L 250 330 Z M 390 330 L 420 330 L 420 420 L 390 420 L 390 330 Z" style=""></path>
  <path d="M 700 160 L 825 160 L 825 185 L 850 185 L 850 235 L 800 235 L 800 210 L 725 210 L 725 235 L 700 235 L 700 335 L 725 335 L 725 360 L 800 360 L 800 335 L 850 335 L 850 385 L 825 385 L 825 410 L 700 410 L 700 385 L 675 385 L 675 360 L 650 360 L 650 210 L 675 210 L 675 185 L 700 185 L 700 160 Z M 875 160 L 1025 160 L 1025 185 L 1050 185 L 1050 285 L 1025 285 L 1025 310 L 1050 310 L 1050 410 L 1000 410 L 1000 335 L 925 335 L 925 410 L 875 410 L 875 160 Z M 1000 210 L 925 210 L 925 285 L 1000 285 L 1000 210 Z M 1075.01 160 L 1125.01 160 L 1125.01 410 L 1075.01 410 L 1075.01 160 Z M 1200.01 160 L 1300.01 160 L 1300.01 185 L 1325.01 185 L 1325.01 210 L 1350.01 210 L 1350.01 410 L 1300.01 410 L 1300.01 335 L 1200.01 335 L 1200.01 410 L 1150 410 L 1150 210 L 1175.01 210 L 1175.01 185 L 1200.01 185 L 1200.01 160 Z M 1300.01 235 L 1275.01 235 L 1275.01 210 L 1225.01 210 L 1225.01 235 L 1200.01 235 L 1200.01 285 L 1300.01 285 L 1300.01 235 Z M 1375.01 160 L 1525.01 160 L 1525.01 185 L 1550.01 185 L 1550.01 310 L 1525.01 310 L 1525.01 335 L 1425.01 335 L 1425.01 410 L 1375.01 410 L 1375.01 160 Z M 1500.01 210 L 1425.01 210 L 1425.01 285 L 1500.01 285 L 1500.01 210 Z M 1575.01 160 L 1625.01 160 L 1625.01 410 L 1575.01 410 L 1575.01 160 Z M 1650.01 160 L 1700.01 160 L 1700.01 210 L 1725.01 210 L 1725.01 235 L 1750.01 235 L 1750.01 210 L 1775.01 210 L 1775.01 160 L 1825.01 160 L 1825.01 235 L 1800.01 235 L 1800.01 260 L 1775.01 260 L 1775.01 285 L 1800.01 285 L 1800.01 310 L 1825.01 310 L 1825.01 410 L 1775.01 410 L 1775.01 335 L 1750.01 335 L 1750.01 310 L 1725.01 310 L 1725.01 335 L 1700.01 335 L 1700.01 410 L 1650.01 410 L 1650.01 310 L 1675.01 310 L 1675.01 285 L 1700.01 285 L 1700.01 260 L 1675.01 260 L 1675.01 235 L 1650.01 235 L 1650.01 160 Z M 1875.01 160 L 2025.01 160 L 2025.01 210 L 1900.01 210 L 1900.01 260 L 2000.01 260 L 2000.01 310 L 1900.01 310 L 1900.01 360 L 2025.01 360 L 2025.01 410 L 1875.01 410 L 1875.01 385 L 1850.01 385 L 1850.01 185 L 1875.01 185 L 1875.01 160 Z M 2050.01 160 L 2100.01 160 L 2100.01 360 L 2200.01 360 L 2200.01 410 L 2050.01 410 L 2050.01 160 Z" style=""></path>
</svg>
